<svg xmlns="http://www.w3.org/2000/svg" width="512" height="512" viewBox="0 0 512 512">
    <defs>
        <clipPath id="tile">
            <rect width="512" height="512" rx="48" ry="48"/>
        </clipPath>
    </defs>
    <g clip-path="url(#tile)">
        <rect width="512" height="512" fill="#ffffff"/>
        <path fill="#45a2ff" d="M256 340C357.662 340 449.024 384.099 512 454.212V464C512 490.51 490.51 512 464 512H364.461C341.817 475.958 301.707 452 256 452C210.293 452 170.183 475.958 147.539 512H48C21.4903 512 0 490.51 0 464V454.212C62.9757 384.099 154.338 340 256 340ZM256 207C357.662 207 449.024 251.099 512 321.212V430.891C446.742 364.892 356.146 324 256 324C155.854 324 65.2578 364.892 0 430.891V321.212C62.9757 251.099 154.338 207 256 207ZM256 74C357.662 74 449.024 118.099 512 188.212V297.891C446.742 231.892 356.146 191 256 191C155.854 191 65.2578 231.892 0 297.891V188.212C62.9757 118.099 154.338 74 256 74ZM464 0C490.51 0 512 21.4903 512 48V164.891C446.742 98.8922 356.146 58 256 58C155.854 58 65.2578 98.8922 0 164.891V48C0 21.4903 21.4903 0 48 0H464Z"/>
    </g>
</svg>
